# xmcd CD database file
# Copyright (C) 1993-1996 Ti Kan
#
# Track frame offsets:
# 150
# 11602
# 22837
# 36305
# 48665
# 59775
# 71002
# 82235
# 93522
# 103395
# 114670
# 125657
# 138087
# 148185
# 160507
# 171370
# 182047
# 193610
# 206182
# 215882
# 227090
# 239170
# 252460
# 264115
# 278190
# 288465
# 298010
#
# Disc length: 4122 seconds
#
# Revision: 0
# Processed by: cddbd v1.4PL0 Copyright (c) Steve Scherf et al.
# Submitted via: inCDius 1.1b5
#
DISCID=b710181b
DTITLE=Tommy Collins - Leonard - Disc 1
DYEAR=1992
DGENRE=Country
TTITLE0=Campus Boogie
TTITLE1=Too Beautiful To Cry
TTITLE2=Smooth Sailin'
TTITLE3=Fool's Gold
TTITLE4=You Gotta Have A License
TTITLE5=Let Me Love You
TTITLE6=There'll Be No Other
TTITLE7=I Love You More And More Each Day
TTITLE8=Boob-I Lak
TTITLE9=You Better Not Do That
TTITLE10=I Always Get A Souvenir
TTITLE11=High On A Hilltop
TTITLE12=Untied
TTITLE13=Whatcha Gonna Do Now
TTITLE14=Love -A - Me,S'il Vous Plait
TTITLE15=You're For Me
TTITLE16=I'll Be Gone
TTITLE17=Wait A Little Longer
TTITLE18=Let Down
TTITLE19=It Tickles
TTITLE20=It's Nobody's Fault But Yours
TTITLE21=I Guess I'm Crazy
TTITLE22=You Oughta See Pickles Now
TTITLE23=Those Old Love Letters From You
TTITLE24=I Wish I Had Died In My Cradle
TTITLE25=I'll Never,Never Let You Go
TTITLE26=I'll Always Speak Well Of You
EXTD=
EXTT0=
EXTT1=
EXTT2=
EXTT3=
EXTT4=
EXTT5=
EXTT6=
EXTT7=
EXTT8=
EXTT9=
EXTT10=
EXTT11=
EXTT12=
EXTT13=
EXTT14=
EXTT15=
EXTT16=
EXTT17=
EXTT18=With Wanda Collins
EXTT19=With Wanda Collins
EXTT20=
EXTT21=
EXTT22=
EXTT23=
EXTT24=
EXTT25=
EXTT26=
PLAYORDER=
